<mxfile host="65bd71144e">
    <diagram id="C0WvZ3RCX6fg5BUOQBPL" name="Page-1">
        <mxGraphModel dx="1208" dy="731" grid="1" gridSize="10" guides="1" tooltips="1" connect="1" arrows="1" fold="1" page="1" pageScale="1" pageWidth="1100" pageHeight="850" math="0" shadow="0">
            <root>
                <mxCell id="0"/>
                <mxCell id="1" parent="0"/>
                <mxCell id="12" style="edgeStyle=none;html=1;entryX=0.82;entryY=0.02;entryDx=0;entryDy=0;entryPerimeter=0;" edge="1" parent="1" source="3" target="6">
                    <mxGeometry relative="1" as="geometry"/>
                </mxCell>
                <mxCell id="3" value="databas" style="shape=cylinder;whiteSpace=wrap;html=1;boundedLbl=1;backgroundOutline=1;" vertex="1" parent="1">
                    <mxGeometry x="80" y="100" width="60" height="100" as="geometry"/>
                </mxCell>
                <mxCell id="5" value="" style="group" vertex="1" connectable="0" parent="1">
                    <mxGeometry x="770" y="70" width="220" height="110" as="geometry"/>
                </mxCell>
                <mxCell id="2" value="user 1" style="whiteSpace=wrap;html=1;shape=mxgraph.basic.oval_callout" vertex="1" parent="5">
                    <mxGeometry x="120" width="100" height="60" as="geometry"/>
                </mxCell>
                <mxCell id="4" value="rispons" style="whiteSpace=wrap;html=1;shape=mxgraph.basic.oval_callout;direction=north;" vertex="1" parent="5">
                    <mxGeometry y="50" width="100" height="60" as="geometry"/>
                </mxCell>
                <mxCell id="6" value="" style="swimlane;fontStyle=0;childLayout=stackLayout;horizontal=1;startSize=20;fillColor=#ffffff;horizontalStack=0;resizeParent=1;resizeParentMax=0;resizeLast=0;collapsible=0;marginBottom=0;swimlaneFillColor=#ffffff;" vertex="1" parent="1">
                    <mxGeometry x="250" y="375" width="100" height="50" as="geometry"/>
                </mxCell>
                <mxCell id="7" value="" style="swimlane;fontStyle=0;childLayout=stackLayout;horizontal=1;startSize=20;fillColor=#ffffff;horizontalStack=0;resizeParent=1;resizeParentMax=0;resizeLast=0;collapsible=0;marginBottom=0;swimlaneFillColor=#ffffff;" vertex="1" parent="1">
                    <mxGeometry x="150" y="375" width="100" height="50" as="geometry"/>
                </mxCell>
                <mxCell id="10" value="" style="swimlane;fontStyle=0;childLayout=stackLayout;horizontal=1;startSize=20;fillColor=#ffffff;horizontalStack=0;resizeParent=1;resizeParentMax=0;resizeLast=0;collapsible=0;marginBottom=0;swimlaneFillColor=#ffffff;" vertex="1" parent="1">
                    <mxGeometry x="350" y="375" width="100" height="50" as="geometry"/>
                </mxCell>
                <mxCell id="11" value="" style="swimlane;fontStyle=0;childLayout=stackLayout;horizontal=1;startSize=20;fillColor=#ffffff;horizontalStack=0;resizeParent=1;resizeParentMax=0;resizeLast=0;collapsible=0;marginBottom=0;swimlaneFillColor=#ffffff;" vertex="1" parent="1">
                    <mxGeometry x="450" y="375" width="100" height="50" as="geometry"/>
                </mxCell>
            </root>
        </mxGraphModel>
    </diagram>
</mxfile>